<?xml version="1.0" encoding="iso-8859-1"?>
<!-- Generator: Adobe Illustrator 17.1.0, SVG Export Plug-In . SVG Version: 6.00 Build 0)  -->
<!DOCTYPE svg PUBLIC "-//W3C//DTD SVG 1.1//EN" "http://www.w3.org/Graphics/SVG/1.1/DTD/svg11.dtd">
<svg version="1.1" fill="#00885b" id="Capa_1" xmlns="http://www.w3.org/2000/svg" xmlns:xlink="http://www.w3.org/1999/xlink" x="0px" y="0px"
	 viewBox="0 0 295.273 295.273" style="enable-background:new 0 0 295.273 295.273;" xml:space="preserve">
<path id="XMLID_97_" d="M249.728,11v182.182c0,56.294-45.797,102.092-102.09,102.092c-56.293,0-102.091-45.798-102.091-102.092V11
	c0-6.075,4.925-11,11-11s11,4.925,11,11v182.182c0,44.163,35.929,80.092,80.091,80.092c44.162,0,80.09-35.929,80.09-80.092V22
	H124.477v163.712c0,12.77,10.39,23.159,23.161,23.159c12.769,0,23.157-10.39,23.157-23.159V71.515c0-6.075,4.925-11,11-11
	s11,4.925,11,11v114.197c0,24.901-20.257,45.159-45.157,45.159c-24.902,0-45.161-20.258-45.161-45.159V11c0-6.075,4.925-11,11-11
	h125.251C244.803,0,249.728,4.925,249.728,11z"/>
<g>
</g>
<g>
</g>
<g>
</g>
<g>
</g>
<g>
</g>
<g>
</g>
<g>
</g>
<g>
</g>
<g>
</g>
<g>
</g>
<g>
</g>
<g>
</g>
<g>
</g>
<g>
</g>
<g>
</g>
</svg>
